<mxfile host="app.diagrams.net" modified="2022-08-28T17:04:02.651Z" agent="5.0 (Macintosh; Intel Mac OS X 10_15_7) AppleWebKit/537.36 (KHTML, like Gecko) Chrome/104.0.0.0 Safari/537.36" etag="q-9JQTpyKmglHr2dC4GH" version="20.2.7" type="github">
  <diagram id="M14Bi0SPeSwC654nAqJp" name="Page-1">
    <mxGraphModel dx="1306" dy="1070" grid="1" gridSize="10" guides="1" tooltips="1" connect="1" arrows="1" fold="1" page="1" pageScale="1" pageWidth="1100" pageHeight="850" math="0" shadow="0">
      <root>
        <mxCell id="0" />
        <mxCell id="1" parent="0" />
        <mxCell id="JBE3XxUc7-_DPygx-jZd-1" value="Public cluster -&lt;br&gt;Client Source Addresses will be visible&lt;br&gt;No outbound access to any UVU systems, vnets, or networks other than container registry&lt;br&gt;&lt;br&gt;Can build Private endpoints for azure systems like storage, cosmos DB, etc." style="whiteSpace=wrap;html=1;aspect=fixed;" vertex="1" parent="1">
          <mxGeometry x="80" y="90" width="220" height="220" as="geometry" />
        </mxCell>
        <mxCell id="JBE3XxUc7-_DPygx-jZd-2" value="App Gateway&lt;br&gt;Ingress" style="ellipse;whiteSpace=wrap;html=1;aspect=fixed;" vertex="1" parent="1">
          <mxGeometry x="150" y="50" width="80" height="80" as="geometry" />
        </mxCell>
        <mxCell id="JBE3XxUc7-_DPygx-jZd-4" value="Option 2 -&lt;br&gt;Client source addresses will be nated to app gateway&#39;s private address&lt;br&gt;&lt;br&gt;User Defined Route to FW for UVU systems and other VMs / VNets in azure for outbound&lt;br&gt;&lt;br&gt;Can build Private endpoints for azure systems like storage, cosmos DB, etc." style="whiteSpace=wrap;html=1;aspect=fixed;" vertex="1" parent="1">
          <mxGeometry x="410" y="140" width="220" height="220" as="geometry" />
        </mxCell>
        <mxCell id="JBE3XxUc7-_DPygx-jZd-5" value="App Gateway&lt;br&gt;Source nat" style="ellipse;whiteSpace=wrap;html=1;aspect=fixed;" vertex="1" parent="1">
          <mxGeometry x="480" y="50" width="80" height="80" as="geometry" />
        </mxCell>
        <mxCell id="JBE3XxUc7-_DPygx-jZd-6" value="nginx ingress" style="rounded=1;whiteSpace=wrap;html=1;" vertex="1" parent="1">
          <mxGeometry x="480" y="140" width="80" height="30" as="geometry" />
        </mxCell>
        <mxCell id="JBE3XxUc7-_DPygx-jZd-7" value="Public / app gateway ingress" style="text;html=1;align=center;verticalAlign=middle;resizable=0;points=[];autosize=1;strokeColor=none;fillColor=none;" vertex="1" parent="1">
          <mxGeometry x="90" width="180" height="30" as="geometry" />
        </mxCell>
        <mxCell id="JBE3XxUc7-_DPygx-jZd-8" value="Public / app gateway to ingress" style="text;html=1;align=center;verticalAlign=middle;resizable=0;points=[];autosize=1;strokeColor=none;fillColor=none;" vertex="1" parent="1">
          <mxGeometry x="415" width="190" height="30" as="geometry" />
        </mxCell>
        <mxCell id="JBE3XxUc7-_DPygx-jZd-10" value="FW" style="rhombus;whiteSpace=wrap;html=1;" vertex="1" parent="1">
          <mxGeometry x="500" y="420" width="40" height="40" as="geometry" />
        </mxCell>
        <mxCell id="JBE3XxUc7-_DPygx-jZd-11" value="" style="endArrow=classic;html=1;rounded=0;exitX=0.5;exitY=1;exitDx=0;exitDy=0;entryX=0.5;entryY=0;entryDx=0;entryDy=0;" edge="1" parent="1" source="JBE3XxUc7-_DPygx-jZd-4" target="JBE3XxUc7-_DPygx-jZd-10">
          <mxGeometry width="50" height="50" relative="1" as="geometry">
            <mxPoint x="280" y="450" as="sourcePoint" />
            <mxPoint x="330" y="400" as="targetPoint" />
          </mxGeometry>
        </mxCell>
        <mxCell id="JBE3XxUc7-_DPygx-jZd-12" value="UVU Campus" style="ellipse;whiteSpace=wrap;html=1;aspect=fixed;" vertex="1" parent="1">
          <mxGeometry x="480" y="520" width="80" height="80" as="geometry" />
        </mxCell>
        <mxCell id="JBE3XxUc7-_DPygx-jZd-13" value="" style="endArrow=classic;html=1;rounded=0;exitX=0.5;exitY=1;exitDx=0;exitDy=0;entryX=0.5;entryY=0;entryDx=0;entryDy=0;" edge="1" parent="1" target="JBE3XxUc7-_DPygx-jZd-12">
          <mxGeometry width="50" height="50" relative="1" as="geometry">
            <mxPoint x="520" y="460" as="sourcePoint" />
            <mxPoint x="340" y="510" as="targetPoint" />
          </mxGeometry>
        </mxCell>
        <mxCell id="JBE3XxUc7-_DPygx-jZd-14" value="Option 3 -&lt;br&gt;Client source addresses will be visible&lt;br&gt;&lt;br&gt;User Defined Route to FW all outbound communication&lt;br&gt;&lt;br&gt;Can build Private endpoints for azure systems like storage, cosmos DB, etc." style="whiteSpace=wrap;html=1;aspect=fixed;" vertex="1" parent="1">
          <mxGeometry x="760" y="250" width="220" height="220" as="geometry" />
        </mxCell>
        <mxCell id="JBE3XxUc7-_DPygx-jZd-16" value="nginx ingress" style="rounded=1;whiteSpace=wrap;html=1;" vertex="1" parent="1">
          <mxGeometry x="830" y="250" width="80" height="30" as="geometry" />
        </mxCell>
        <mxCell id="JBE3XxUc7-_DPygx-jZd-17" value="Public / app gateway to FW to ingress" style="text;html=1;align=center;verticalAlign=middle;resizable=0;points=[];autosize=1;strokeColor=none;fillColor=none;" vertex="1" parent="1">
          <mxGeometry x="760" width="220" height="30" as="geometry" />
        </mxCell>
        <mxCell id="JBE3XxUc7-_DPygx-jZd-19" value="FW" style="rhombus;whiteSpace=wrap;html=1;" vertex="1" parent="1">
          <mxGeometry x="850" y="190" width="40" height="40" as="geometry" />
        </mxCell>
        <mxCell id="JBE3XxUc7-_DPygx-jZd-23" value="" style="ellipse;shape=cloud;whiteSpace=wrap;html=1;" vertex="1" parent="1">
          <mxGeometry x="795" y="30" width="120" height="30" as="geometry" />
        </mxCell>
        <mxCell id="JBE3XxUc7-_DPygx-jZd-27" value="" style="endArrow=classic;html=1;rounded=0;exitX=0.5;exitY=0;exitDx=0;exitDy=0;" edge="1" parent="1" source="JBE3XxUc7-_DPygx-jZd-14" target="JBE3XxUc7-_DPygx-jZd-19">
          <mxGeometry width="50" height="50" relative="1" as="geometry">
            <mxPoint x="690" y="640" as="sourcePoint" />
            <mxPoint x="740" y="590" as="targetPoint" />
          </mxGeometry>
        </mxCell>
        <mxCell id="JBE3XxUc7-_DPygx-jZd-28" value="UVU Campus" style="ellipse;whiteSpace=wrap;html=1;aspect=fixed;" vertex="1" parent="1">
          <mxGeometry x="835" y="520" width="80" height="80" as="geometry" />
        </mxCell>
        <mxCell id="JBE3XxUc7-_DPygx-jZd-29" value="" style="endArrow=classic;html=1;exitX=0;exitY=0.5;exitDx=0;exitDy=0;entryX=0;entryY=0;entryDx=0;entryDy=0;curved=1;" edge="1" parent="1" source="JBE3XxUc7-_DPygx-jZd-19" target="JBE3XxUc7-_DPygx-jZd-28">
          <mxGeometry width="50" height="50" relative="1" as="geometry">
            <mxPoint x="740" y="570" as="sourcePoint" />
            <mxPoint x="790" y="520" as="targetPoint" />
            <Array as="points">
              <mxPoint x="710" y="220" />
              <mxPoint x="720" y="420" />
              <mxPoint x="760" y="510" />
            </Array>
          </mxGeometry>
        </mxCell>
        <mxCell id="JBE3XxUc7-_DPygx-jZd-31" value="App Gateway" style="ellipse;whiteSpace=wrap;html=1;aspect=fixed;" vertex="1" parent="1">
          <mxGeometry x="830" y="90" width="80" height="80" as="geometry" />
        </mxCell>
        <mxCell id="JBE3XxUc7-_DPygx-jZd-32" value="" style="endArrow=classic;html=1;curved=1;exitX=0.5;exitY=1;exitDx=0;exitDy=0;entryX=0.5;entryY=0;entryDx=0;entryDy=0;" edge="1" parent="1" source="JBE3XxUc7-_DPygx-jZd-31" target="JBE3XxUc7-_DPygx-jZd-19">
          <mxGeometry width="50" height="50" relative="1" as="geometry">
            <mxPoint x="640" y="740" as="sourcePoint" />
            <mxPoint x="870" y="180" as="targetPoint" />
          </mxGeometry>
        </mxCell>
        <mxCell id="JBE3XxUc7-_DPygx-jZd-33" value="" style="endArrow=classic;html=1;curved=1;exitX=0.55;exitY=0.95;exitDx=0;exitDy=0;exitPerimeter=0;entryX=0.5;entryY=0;entryDx=0;entryDy=0;" edge="1" parent="1" source="JBE3XxUc7-_DPygx-jZd-23" target="JBE3XxUc7-_DPygx-jZd-31">
          <mxGeometry width="50" height="50" relative="1" as="geometry">
            <mxPoint x="250" y="490" as="sourcePoint" />
            <mxPoint x="300" y="440" as="targetPoint" />
          </mxGeometry>
        </mxCell>
      </root>
    </mxGraphModel>
  </diagram>
</mxfile>
